<svg version="1.1" id="design-container" width="100%" height="100%" xmlns="http://www.w3.org/2000/svg" xmlns:xlink="http://www.w3.org/1999/xlink" viewBox="0 0 1000 500" xml:space="preserve" class="h-full w-full rounded-none" style="background-color: #0A0A0A;"><defs></defs><svg id="design-icon" width="1000" height="1000" viewBox="-700 -350 1400 1400"><g transform="matrix(0.43 0 0 0.43 -44.2 -86.55)" id="design-icon"><path transform=" translate(-148.34, -200.93)" d="M 118.123 348.231 L 187.446 348.231 L 199.646 348.231 L 287.81899999999996 348.231 L 264.52399999999994 307.868 L 231.98 307.868 L 210.689 307.868 L 164.297 307.868 L 164.297 307.881 L 63.876 307.881 L 119.205 212.051 L 119.861 210.993 L 156.567 147.425 L 156.52800000000002 147.412 L 175.82800000000003 113.986 L 195.08000000000004 147.327 L 195.12700000000004 147.425 L 203.60100000000003 162.10000000000002 L 203.89200000000002 162.59700000000004 C 207.36500000000004 168.69100000000003 210.83300000000003 174.79700000000003 214.306 180.92900000000003 L 214.37900000000002 180.78300000000004 L 237.60100000000003 140.56500000000005 L 237.622 140.51800000000006 L 230.013 127.34600000000006 L 229.966 127.25200000000007 L 193.25900000000001 63.68400000000007 C 187.70100000000002 54.05800000000007 175.377 50.78200000000007 165.751 56.353000000000065 C 162.197 58.417000000000066 159.50300000000001 61.41500000000006 157.803 64.84900000000006 L 121.764 127.27400000000006 L 121.725 127.25300000000006 L 85.022 190.82 L 84.418 191.946 L 12.581 316.367 C 10.238999999999999 319.66900000000004 8.856 323.69800000000004 8.856 328.053 C 8.856 339.199 17.9 348.23 29.042 348.23 L 117.892 348.23 L 118.123 348.23 z" stroke-linecap="round" style="stroke: none; stroke-width: 1; stroke-dasharray: none; stroke-linecap: butt; stroke-dashoffset: 0; stroke-linejoin: miter; stroke-miterlimit: 4; fill: rgb(255, 255, 254); fill-rule: nonzero; opacity: 1;"></path></g><g transform="matrix(0.43 0 0 0.43 -0.32 -22.51)" id="design-icon"><path transform=" translate(-249.27, -348.23)" d="M 357.541 348.231 L 357.502 348.145 L 340.074 317.969 L 340.06100000000004 317.943 L 334.297 307.953 L 334.245 307.88 L 321.052 285.026 L 321.005 284.94 L 303.367 254.387 L 303.32800000000003 254.413 L 284.088 221.08100000000002 L 260.71200000000005 261.57300000000004 C 263.31100000000004 265.91900000000004 265.9320000000001 270.25300000000004 268.56600000000003 274.54800000000006 L 268.52700000000004 274.57400000000007 L 287.754 307.8670000000001 L 305.233 338.14200000000005 L 311.061 348.23100000000005 L 361.166 435.01700000000005 L 322.653 435.01700000000005 L 322.653 435.09000000000003 L 175.841 435.09000000000003 L 175.841 435.01700000000005 L 137.341 435.01700000000005 L 175.816 368.35300000000007 L 129.342 368.35300000000007 L 85.02200000000002 445.10600000000005 L 84.76900000000002 445.55600000000004 L 84.52500000000002 446.01400000000007 L 84.29400000000003 446.47600000000006 L 84.07600000000002 446.93800000000005 L 83.88300000000002 447.40100000000007 L 83.68600000000002 447.87200000000007 L 83.50600000000001 448.3470000000001 L 83.34800000000001 448.8180000000001 L 83.19000000000001 449.2930000000001 L 83.05700000000002 449.7770000000001 L 83.04400000000001 449.7770000000001 L 82.924 450.2520000000001 L 82.80000000000001 450.7360000000001 L 82.70600000000002 451.2200000000001 L 82.60700000000001 451.7080000000001 L 82.53400000000002 452.19200000000006 L 82.46100000000003 452.68000000000006 L 82.41400000000003 453.16400000000004 L 82.36200000000002 453.648 L 82.34100000000002 454.136 L 82.31500000000003 454.62 L 82.31500000000003 455.108 L 82.31500000000003 455.592 L 82.32800000000003 456.07599999999996 L 82.35300000000004 456.56399999999996 L 82.36200000000004 456.56399999999996 L 82.40100000000004 457.04799999999994 L 82.44800000000004 457.52299999999997 L 82.50800000000004 458.00699999999995 L 82.58100000000003 458.48199999999997 L 82.66700000000003 458.96599999999995 L 82.76600000000003 459.441 L 82.87700000000004 459.899 L 82.99700000000004 460.374 L 83.11700000000005 460.836 L 83.13000000000005 460.836 L 83.26300000000005 461.29400000000004 L 83.40900000000005 461.75600000000003 L 83.42200000000005 461.75600000000003 L 83.58000000000006 462.21900000000005 L 83.75100000000006 462.66800000000006 L 83.93100000000007 463.11300000000006 L 83.94400000000007 463.11300000000006 L 84.12400000000008 463.55000000000007 L 84.13700000000009 463.55000000000007 L 84.33400000000009 463.99100000000004 L 84.34200000000008 463.99100000000004 L 84.55200000000008 464.42800000000005 L 84.78300000000007 464.85200000000003 L 85.02300000000007 465.276 L 85.26700000000007 465.7 L 85.53300000000007 466.115 L 85.80300000000007 466.51300000000003 L 86.08100000000007 466.91600000000005 L 86.37200000000007 467.3140000000001 L 86.66300000000007 467.70400000000006 L 86.98000000000006 468.0810000000001 L 87.29300000000006 468.4580000000001 L 87.62300000000006 468.82200000000006 L 87.63600000000007 468.82200000000006 L 87.97400000000006 469.18600000000004 L 88.31300000000006 469.53700000000003 L 88.67700000000006 469.87500000000006 L 89.04500000000006 470.2180000000001 L 89.05400000000006 470.2180000000001 L 89.43100000000005 470.54300000000006 L 89.82000000000005 470.87300000000005 L 90.21800000000005 471.18600000000004 L 90.62100000000005 471.49 L 91.04500000000006 471.781 L 91.46900000000007 472.064 L 91.90600000000006 472.34200000000004 L 92.35600000000007 472.60800000000006 L 92.80500000000006 472.86500000000007 L 92.95100000000006 472.93800000000005 L 93.25500000000007 473.09600000000006 L 93.26800000000007 473.1050000000001 L 93.71800000000007 473.32400000000007 L 93.73100000000008 473.33700000000005 L 94.02300000000008 473.47 L 94.18100000000008 473.543 L 94.19000000000008 473.543 L 94.32700000000008 473.607 L 94.64000000000009 473.74 L 94.65300000000009 473.753 L 95.1030000000001 473.933 L 95.12900000000009 473.94599999999997 L 95.26200000000009 473.993 L 95.42100000000009 474.053 L 95.5790000000001 474.117 L 95.6000000000001 474.12600000000003 L 95.73300000000009 474.165 L 95.87900000000009 474.225 L 96.0380000000001 474.27200000000005 L 96.07600000000009 474.285 L 96.1960000000001 474.336 L 96.3550000000001 474.38300000000004 L 96.5130000000001 474.43000000000006 L 96.54700000000011 474.44300000000004 L 96.5730000000001 474.44300000000004 L 96.83900000000011 474.52900000000005 L 96.99700000000011 474.56700000000006 L 97.03600000000012 474.5760000000001 L 97.15600000000012 474.6140000000001 L 97.44700000000012 474.7000000000001 L 97.47300000000011 474.7000000000001 L 97.50700000000012 474.7130000000001 L 97.63100000000011 474.7340000000001 L 97.78500000000011 474.7720000000001 L 97.94300000000011 474.81900000000013 L 97.99500000000012 474.8320000000001 L 98.10200000000012 474.8580000000001 L 98.26100000000012 474.87900000000013 L 98.43200000000013 474.9180000000001 L 98.47900000000013 474.9310000000001 L 98.59000000000013 474.9520000000001 L 98.74400000000013 474.9780000000001 L 98.90200000000013 475.0120000000001 L 98.96200000000013 475.0250000000001 L 99.06000000000013 475.03800000000007 L 99.23100000000014 475.0640000000001 L 99.38900000000014 475.0850000000001 L 99.44900000000014 475.09800000000007 L 99.54300000000013 475.11100000000005 L 99.71400000000014 475.13700000000006 L 99.87200000000014 475.1580000000001 L 99.93200000000014 475.17100000000005 L 100.03100000000015 475.184 L 100.34800000000014 475.223 L 100.42100000000013 475.223 L 100.51500000000013 475.232 L 100.67300000000013 475.245 L 100.83200000000014 475.258 L 100.90500000000013 475.27099999999996 L 101.00300000000013 475.27099999999996 L 101.15700000000012 475.28399999999993 L 101.31600000000013 475.2969999999999 L 101.38900000000012 475.2969999999999 L 101.47400000000012 475.2969999999999 L 101.64500000000012 475.3059999999999 L 101.80300000000013 475.3189999999999 L 101.87600000000012 475.3189999999999 L 101.96200000000012 475.3189999999999 L 102.11600000000011 475.3189999999999 L 102.28700000000012 475.3189999999999 L 102.36000000000011 475.3189999999999 L 102.44600000000011 475.3189999999999 L 102.44600000000011 475.3699999999999 L 175.84600000000012 475.3699999999999 L 175.84600000000012 475.2969999999999 L 322.6590000000001 475.2969999999999 L 322.6590000000001 475.3699999999999 L 396.0590000000001 475.3699999999999 C 407.2010000000001 475.3699999999999 416.2320000000001 466.3389999999999 416.2320000000001 455.19299999999987 C 416.2320000000001 451.01799999999986 414.97300000000007 447.1469999999999 412.79800000000006 443.93099999999987 L 357.541 348.231 z" stroke-linecap="round" style="stroke: none; stroke-width: 1; stroke-dasharray: none; stroke-linecap: butt; stroke-dashoffset: 0; stroke-linejoin: miter; stroke-miterlimit: 4; fill: rgb(255, 255, 254); fill-rule: nonzero; opacity: 1;"></path></g><g transform="matrix(0.43 0 0 0.43 36 -86.55)" id="design-icon"><path transform=" translate(-332.79, -200.93)" d="M 489.627 327.45 L 489.627 327.424 L 489.618 327.034 L 489.618 327.012 L 489.605 326.841 L 489.59200000000004 326.635 L 489.57900000000006 326.498 L 489.57900000000006 326.438 L 489.5450000000001 326.03999999999996 L 489.5320000000001 325.989 L 489.4940000000001 325.638 L 489.4810000000001 325.47999999999996 L 489.4730000000001 325.44599999999997 L 489.4470000000001 325.253 L 489.42200000000014 325.043 L 489.40900000000016 324.983 L 489.38800000000015 324.85 L 489.36200000000014 324.65700000000004 L 489.32800000000015 324.48600000000005 L 489.32800000000015 324.46000000000004 L 489.29000000000013 324.26700000000005 L 489.25600000000014 324.07400000000007 L 489.23000000000013 323.9890000000001 L 489.21700000000016 323.8900000000001 L 489.17000000000013 323.6970000000001 L 489.13100000000014 323.5000000000001 L 489.11800000000017 323.49200000000013 L 489.0840000000002 323.3080000000001 L 489.03700000000015 323.1240000000001 L 489.01200000000017 323.0040000000001 L 488.98600000000016 322.9310000000001 L 488.89200000000017 322.5540000000001 L 488.8790000000002 322.5330000000001 L 488.82700000000017 322.37500000000006 L 488.78000000000014 322.17800000000005 L 488.7330000000001 322.05800000000005 L 488.72000000000014 321.99800000000005 L 488.66000000000014 321.814 L 488.60000000000014 321.634 L 488.58700000000016 321.583 L 488.53500000000014 321.45000000000005 L 488.47500000000014 321.27000000000004 L 488.41500000000013 321.112 L 488.40200000000016 321.086 L 488.34200000000016 320.906 L 488.2690000000002 320.722 L 488.24300000000017 320.649 L 488.19600000000014 320.542 L 488.12300000000016 320.371 L 488.0500000000002 320.2 L 488.0500000000002 320.187 L 487.9770000000002 320.007 L 487.8920000000002 319.836 L 487.85800000000023 319.75 L 487.81900000000024 319.669 L 487.66100000000023 319.31399999999996 L 487.64800000000025 319.306 L 487.49400000000026 318.976 L 487.43000000000023 318.86899999999997 L 487.39600000000024 318.80499999999995 L 487.31000000000023 318.638 L 487.22500000000025 318.467 L 487.20400000000024 318.441 L 487.13100000000026 318.29499999999996 L 487.0460000000003 318.13699999999994 L 486.9730000000003 318.00399999999996 L 486.9470000000003 317.96999999999997 L 486.8490000000003 317.799 L 486.7550000000003 317.64099999999996 L 486.63100000000026 317.46099999999996 L 486.4640000000003 317.17799999999994 L 486.4510000000003 317.1569999999999 L 486.3400000000003 316.9989999999999 L 486.2460000000003 316.8409999999999 L 486.1940000000003 316.7809999999999 L 486.1340000000003 316.6829999999999 L 486.02700000000027 316.5239999999999 L 485.9160000000003 316.3779999999999 L 485.9160000000003 316.36899999999986 C 461.9660000000003 274.8919999999999 438.3720000000003 231.50999999999988 413.4500000000003 190.84299999999985 L 413.4880000000003 190.82199999999986 L 340.2080000000003 63.91699999999986 C 339.58700000000033 62.81199999999986 338.8720000000003 61.76699999999986 338.0450000000003 60.78199999999986 L 337.9640000000003 60.68799999999986 L 337.6940000000003 60.38399999999986 L 337.6730000000003 60.357999999999855 L 337.3690000000003 60.03299999999985 L 337.35600000000034 60.00699999999985 L 337.12500000000034 59.77599999999985 L 337.00500000000034 59.642999999999844 L 336.7870000000003 59.42399999999984 L 336.6500000000003 59.29999999999984 L 336.42300000000034 59.072999999999844 L 336.39700000000033 59.059999999999846 L 336.06700000000035 58.755999999999844 L 336.03300000000036 58.72999999999984 L 335.74200000000036 58.46399999999984 L 335.63000000000034 58.377999999999844 C 334.59800000000035 57.50399999999984 333.49300000000034 56.75099999999984 332.3160000000003 56.108999999999845 L 332.2950000000003 56.09599999999985 C 331.9910000000003 55.92499999999985 331.6870000000003 55.77899999999985 331.3700000000003 55.62499999999985 L 331.0190000000003 55.45399999999985 L 330.91200000000026 55.406999999999854 L 330.5820000000003 55.260999999999854 L 330.5480000000003 55.260999999999854 C 328.3000000000003 54.28899999999985 325.9450000000003 53.765999999999856 323.6030000000003 53.65499999999985 L 323.5430000000003 53.65499999999985 L 323.2260000000003 53.641999999999854 L 323.0590000000003 53.641999999999854 L 322.7420000000003 53.63299999999985 L 322.5710000000003 53.63299999999985 L 322.2580000000003 53.641999999999854 L 322.08700000000033 53.641999999999854 L 321.7700000000003 53.65499999999985 L 321.7100000000003 53.65499999999985 C 319.36800000000034 53.76599999999985 317.01200000000034 54.28899999999985 314.76900000000035 55.260999999999854 L 314.73100000000034 55.260999999999854 L 314.40600000000035 55.406999999999854 L 314.29500000000036 55.45399999999985 L 313.94400000000036 55.62499999999985 C 313.62700000000035 55.778999999999854 313.3230000000004 55.92499999999985 313.01900000000035 56.09599999999985 L 312.99800000000033 56.108999999999845 C 311.8210000000003 56.75099999999985 310.71600000000035 57.504999999999846 309.6840000000003 58.377999999999844 L 309.5720000000003 58.46399999999984 L 309.2810000000003 58.72999999999984 L 309.2470000000003 58.755999999999844 L 308.9170000000003 59.059999999999846 L 308.8960000000003 59.072999999999844 L 308.6650000000003 59.29999999999984 L 308.5320000000003 59.42399999999984 L 308.3140000000003 59.642999999999844 L 308.1900000000003 59.77599999999985 L 307.9590000000003 60.00699999999985 L 307.9500000000003 60.03299999999985 L 307.6460000000003 60.357999999999855 L 307.6200000000003 60.38399999999986 L 307.3550000000003 60.68799999999986 L 307.2690000000003 60.78199999999986 C 306.44300000000027 61.76699999999986 305.7270000000003 62.81199999999986 305.1060000000003 63.91699999999986 L 273.0840000000003 119.37499999999986 L 249.2580000000003 160.65899999999985 L 249.23200000000028 160.69299999999984 L 231.83800000000028 190.82199999999983 L 231.82500000000027 190.83499999999984 L 226.01400000000027 200.90699999999984 L 225.81700000000026 201.24999999999983 L 225.84300000000027 201.29699999999983 L 175.93100000000027 287.74499999999983 L 222.32400000000027 287.74499999999983 L 248.94200000000026 241.63499999999982 L 248.96800000000027 241.6689999999998 L 266.61900000000026 211.0949999999998 L 266.67900000000026 210.9969999999998 L 322.6590000000003 114.02399999999979 L 378.65200000000027 210.9969999999998 L 378.6780000000003 210.98399999999978 L 434.62400000000025 307.8839999999998 L 396.07200000000023 307.8839999999998 L 357.49900000000025 307.8839999999998 L 380.79000000000025 348.2339999999998 L 396.07300000000026 348.2339999999998 L 469.4730000000003 348.2339999999998 C 480.6150000000003 348.2339999999998 489.6460000000003 339.2029999999998 489.6460000000003 328.0569999999998 L 489.6460000000003 327.8509999999998 L 489.6460000000003 327.64499999999975 L 489.6460000000003 327.53399999999976 L 489.627 327.45 z" stroke-linecap="round" style="stroke: none; stroke-width: 1; stroke-dasharray: none; stroke-linecap: butt; stroke-dashoffset: 0; stroke-linejoin: miter; stroke-miterlimit: 4; fill: rgb(255, 255, 254); fill-rule: nonzero; opacity: 1;"></path></g><g transform="matrix(1 0 0 1 0 119.94)" id="design-company-name"><text xml:space="preserve" font-family="Secular One" font-size="80" font-style="normal" font-weight="normal" style="stroke: none; stroke-width: 1; stroke-dasharray: none; stroke-linecap: butt; stroke-dashoffset: 0; stroke-linejoin: miter; stroke-miterlimit: 4; fill: rgb(255, 255, 254); fill-rule: nonzero; opacity: 1; white-space: pre;"><tspan x="-188.52" y="25.13">Elevate AI</tspan></text></g></svg></svg>
